<svg width="118" height="118" viewBox="0 0 118 118" fill="none" xmlns="http://www.w3.org/2000/svg">
<mask id="mask0_54742_33763" style="mask-type:alpha" maskUnits="userSpaceOnUse" x="0" y="0" width="118" height="118">
<rect width="117.162" height="117.162" fill="#D9D9D9"/>
</mask>
<g mask="url(#mask0_54742_33763)">
<path d="M41.0069 82.9898L58.5812 65.4155L76.1555 82.9898L82.99 76.1554L65.4157 58.581L82.99 41.0067L76.1555 34.1723L58.5812 51.7466L41.0069 34.1723L34.1724 41.0067L51.7468 58.581L34.1724 76.1554L41.0069 82.9898ZM58.5812 107.399C51.8281 107.399 45.4818 106.117 39.5424 103.554C33.6029 100.991 28.4364 97.513 24.0428 93.1195C19.6492 88.7259 16.171 83.5594 13.6081 77.6199C11.0451 71.6804 9.76367 65.3341 9.76367 58.581C9.76367 51.8279 11.0451 45.4817 13.6081 39.5422C16.171 33.6027 19.6492 28.4362 24.0428 24.0426C28.4364 19.649 33.6029 16.1708 39.5424 13.6079C45.4818 11.0449 51.8281 9.76349 58.5812 9.76349C65.3343 9.76349 71.6806 11.0449 77.6201 13.6079C83.5595 16.1708 88.7261 19.649 93.1196 24.0426C97.5132 28.4362 100.991 33.6027 103.554 39.5422C106.117 45.4817 107.399 51.8279 107.399 58.581C107.399 65.3341 106.117 71.6804 103.554 77.6199C100.991 83.5594 97.5132 88.7259 93.1196 93.1195C88.7261 97.513 83.5595 100.991 77.6201 103.554C71.6806 106.117 65.3343 107.399 58.5812 107.399Z" fill="#EF7676"/>
</g>
</svg>
