<svg width="271" height="205" viewBox="0 0 271 205" fill="none" xmlns="http://www.w3.org/2000/svg">
<path d="M35.7103 35.8923V46H2.69616V39.5678L15.8887 26.8348C20.8113 22.0434 23.1085 19.5493 23.1085 15.8738C23.1085 12.8546 21.2707 11.0825 18.0546 11.0825C14.3134 11.0825 12.2131 13.2484 12.2131 16.9896H1.2522C1.2522 7.60387 8.40635 0.974794 18.6453 0.974794C27.9654 0.974794 34.9227 6.75062 34.9227 14.4298C34.9227 20.0088 32.888 23.3561 24.6837 31.2979L19.958 35.8923H35.7103ZM40.8849 23.8812C40.8849 9.17909 47.3827 0.974794 58.7375 0.974794C70.0922 0.974794 76.59 9.17909 76.59 23.8812C76.59 38.5177 70.2235 46.6563 58.7375 46.6563C47.2514 46.6563 40.8849 38.5177 40.8849 23.8812ZM52.5022 23.8812C52.5022 32.0855 54.6025 36.5486 58.7375 36.5486C62.7412 36.5486 64.9727 32.0855 64.9727 23.8812C64.9727 15.6113 62.7412 11.0825 58.7375 11.0825C54.7338 11.0825 52.5022 15.6769 52.5022 23.8812ZM130.964 10.6887L114.162 58.6674H101.888L106.811 45.6062L93.0274 10.6887H105.235L112.849 32.5449L119.675 10.6887H130.964ZM149.119 46.5907C138.224 46.5907 130.939 39.2397 130.939 28.2787C130.939 17.7116 138.552 10.0323 149.054 10.0323C160.737 10.0323 168.547 19.5493 166.513 31.1666H142.556C143.147 35.6298 145.247 37.8613 148.857 37.8613C152.007 37.8613 154.108 36.5486 155.092 33.9889H166.316C164.15 42.0619 157.914 46.5907 149.119 46.5907ZM148.791 18.3023C145.444 18.3023 143.475 20.2057 142.687 24.1437H154.502C154.37 20.5995 152.139 18.3023 148.791 18.3023ZM192.741 46V42.587C190.246 45.4093 187.162 46.6563 182.633 46.6563C175.282 46.6563 170.359 42.2588 170.359 35.5641C170.359 28.6725 175.938 24.9314 186.046 24.9314C187.949 24.9314 189.721 25.0626 191.231 25.3252V23.6187C191.231 20.5338 189.459 18.8274 186.308 18.8274C183.224 18.8274 181.386 20.5338 180.992 23.6187H170.884C171.541 15.4144 177.645 10.0323 186.374 10.0323C196.088 10.0323 201.798 15.2831 201.798 24.2094V46H192.741ZM180.926 35.236C180.926 37.5332 182.502 38.9115 185.258 38.9115C188.999 38.9115 191.231 37.1394 191.231 34.2514V32.0199C189.524 31.6917 188.212 31.5604 186.768 31.5604C182.961 31.5604 180.926 32.8075 180.926 35.236ZM220.133 29.7227V46H208.91V10.6887H219.215V16.924C221.906 12.789 227.484 10.4261 233.129 10.4261V22.1091C225.187 21.3215 220.133 21.9122 220.133 29.7227ZM268.858 33.9889C268.858 41.7994 263.082 46.6563 252.449 46.6563C241.816 46.6563 236.04 41.6681 235.318 33.5295H246.082C246.082 36.483 248.773 38.3864 252.646 38.3864C255.206 38.3864 257.503 37.7957 257.503 35.9579C257.503 34.3827 256.321 33.7264 253.893 33.2669L246.936 32.0199C240.766 30.9041 236.828 27.3598 236.828 21.6496C236.828 14.8237 242.604 10.0323 251.858 10.0323C261.113 10.0323 267.545 14.9549 268.201 22.8311H257.437C257.175 20.0088 255.009 18.3023 251.924 18.3023C249.298 18.3023 247.592 19.0243 247.592 20.5995C247.592 22.1091 248.708 22.5685 250.939 22.9623L258.422 24.3406C265.248 25.5877 268.858 28.9351 268.858 33.9889ZM23.5037 118.656C13.0678 118.656 5.06043 110.452 5.06043 100.344C5.06043 90.2366 13.0678 82.0323 23.5037 82.0323C33.9396 82.0323 41.947 90.2366 41.947 100.344C41.947 110.452 33.9396 118.656 23.5037 118.656ZM23.5037 108.614C26.9823 108.614 30.264 105.858 30.264 100.344C30.264 94.8311 26.9823 92.14 23.5037 92.14C20.0251 92.14 16.7434 94.8311 16.7434 100.344C16.7434 105.858 20.0251 108.614 23.5037 108.614ZM60.8879 118H49.6644V92.4682H43.101V82.6887H49.6644V81.4416C49.6644 74.1562 53.6025 70.0869 61.4786 70.0869C64.0384 70.0869 66.2043 70.5463 67.8452 71.2683V80.1289C66.9263 79.7351 65.4823 79.4726 64.3009 79.4726C62.3975 79.4726 60.8879 80.0633 60.8879 81.7042V82.6887H69.5517V92.4682H60.8879V118ZM105.024 118H93.6693V83.4107H85.465V73.6311H105.024V118ZM112.282 95.8812C112.282 81.1791 118.779 72.9748 130.134 72.9748C141.489 72.9748 147.987 81.1791 147.987 95.8812C147.987 110.518 141.62 118.656 130.134 118.656C118.648 118.656 112.282 110.518 112.282 95.8812ZM123.899 95.8812C123.899 104.086 125.999 108.549 130.134 108.549C134.138 108.549 136.369 104.086 136.369 95.8812C136.369 87.6113 134.138 83.0825 130.134 83.0825C126.13 83.0825 123.899 87.6769 123.899 95.8812ZM153.741 95.8812C153.741 81.1791 160.239 72.9748 171.593 72.9748C182.948 72.9748 189.446 81.1791 189.446 95.8812C189.446 110.518 183.079 118.656 171.593 118.656C160.107 118.656 153.741 110.518 153.741 95.8812ZM165.358 95.8812C165.358 104.086 167.458 108.549 171.593 108.549C175.597 108.549 177.829 104.086 177.829 95.8812C177.829 87.6113 175.597 83.0825 171.593 83.0825C167.59 83.0825 165.358 87.6769 165.358 95.8812ZM208.458 100.804C200.057 100.804 193.559 94.5685 193.559 87.0206C193.559 79.407 200.057 73.2373 208.458 73.2373C216.859 73.2373 223.357 79.407 223.357 87.0206C223.357 94.5685 216.859 100.804 208.458 100.804ZM220.666 118H211.805L237.14 73.6311H246.001L220.666 118ZM208.458 92.862C211.543 92.862 214.234 91.0243 214.234 87.0206C214.234 83.0169 211.543 81.1791 208.458 81.1791C205.439 81.1791 202.617 83.0169 202.617 87.0206C202.617 91.0243 205.439 92.862 208.458 92.862ZM250.727 118.591C242.325 118.591 235.828 112.355 235.828 104.807C235.828 97.1939 242.325 91.0243 250.727 91.0243C259.128 91.0243 265.626 97.1939 265.626 104.807C265.626 112.355 259.128 118.591 250.727 118.591ZM250.727 110.649C253.811 110.649 256.502 108.811 256.502 104.807C256.502 100.804 253.811 98.966 250.727 98.966C247.707 98.966 244.885 100.804 244.885 104.807C244.885 108.811 247.707 110.649 250.727 110.649Z" fill="black"/>
<path d="M25.0599 191.985C11.4736 191.985 0.775202 181.68 0.775202 167.372C0.775202 153.063 11.4736 142.89 25.0599 142.89C38.7119 142.89 49.4103 153.063 49.4103 167.372C49.4103 181.68 38.7119 191.985 25.0599 191.985ZM25.0599 180.892C32.4766 180.892 36.6116 174.788 36.6116 167.372C36.6116 159.955 32.4766 153.982 25.0599 153.982C17.6432 153.982 13.5083 159.955 13.5083 167.372C13.5083 174.788 17.6432 180.892 25.0599 180.892ZM66.2561 174.723V191H55.0326V155.689H65.3372V161.924C68.0282 157.789 73.6071 155.426 79.2517 155.426V167.109C71.3099 166.321 66.2561 166.912 66.2561 174.723ZM99.4248 204.324C89.6453 204.324 82.9506 198.942 82.5568 190.737H93.4521C93.8459 193.888 95.8806 195.594 99.3592 195.594C103.56 195.594 105.726 193.363 105.726 189.097V184.962C103.888 187.587 100.541 189.162 96.7338 189.162C88.1357 189.162 81.441 181.746 81.441 172.097C81.441 162.121 87.6106 155.032 96.2744 155.032C100.738 155.032 103.954 156.345 106.645 159.299V155.689H116.949V188.965C116.949 198.482 110.254 204.324 99.4248 204.324ZM92.7957 172.163C92.7957 176.56 95.2242 179.383 99.031 179.383C102.969 179.383 105.594 176.429 105.594 172.097C105.594 167.7 102.969 164.812 99.031 164.812C95.2242 164.812 92.7957 167.7 92.7957 172.163ZM145.102 191V187.587C142.607 190.409 139.523 191.656 134.994 191.656C127.643 191.656 122.72 187.259 122.72 180.564C122.72 173.673 128.299 169.931 138.407 169.931C140.31 169.931 142.082 170.063 143.592 170.325V168.619C143.592 165.534 141.82 163.827 138.669 163.827C135.585 163.827 133.747 165.534 133.353 168.619H123.245C123.902 160.414 130.006 155.032 138.735 155.032C148.449 155.032 154.159 160.283 154.159 169.209V191H145.102ZM133.287 180.236C133.287 182.533 134.863 183.911 137.619 183.911C141.36 183.911 143.592 182.139 143.592 179.251V177.02C141.885 176.692 140.573 176.56 139.129 176.56C135.322 176.56 133.287 177.807 133.287 180.236ZM172.494 172.425V191H161.271V155.689H171.576V159.955C174.332 156.87 177.614 155.032 182.077 155.032C189.034 155.032 193.957 159.692 193.957 168.29V191H182.733V172.032C182.733 167.569 181.158 165.14 177.745 165.14C174.989 165.14 172.494 167.109 172.494 172.425ZM213.861 147.484C213.861 151.16 210.907 153.851 206.641 153.851C202.375 153.851 199.421 151.16 199.421 147.484C199.421 143.743 202.375 141.052 206.641 141.052C210.907 141.052 213.861 143.743 213.861 147.484ZM212.351 191H201.128V155.689H212.351V191ZM235.388 191.656C224.887 191.656 217.601 184.108 217.601 173.344C217.601 162.843 225.215 155.032 235.388 155.032C245.102 155.032 252.322 161.596 253.306 171.441H241.361C241.164 167.569 238.867 165.14 235.454 165.14C231.516 165.14 229.219 168.159 229.219 173.344C229.219 178.661 231.45 181.614 235.454 181.614C238.932 181.614 241.098 179.251 241.361 175.248H253.306C252.322 185.355 245.43 191.656 235.388 191.656ZM270.037 184.174C270.037 188.375 267.149 191.328 262.949 191.328C258.748 191.328 255.795 188.375 255.795 184.174C255.795 179.908 258.748 176.954 262.949 176.954C267.149 176.954 270.037 179.908 270.037 184.174Z" fill="#51B948"/>
</svg>
