<svg width="118" height="118" viewBox="0 0 118 118" fill="none" xmlns="http://www.w3.org/2000/svg">
<mask id="mask0_54741_30825" style="mask-type:alpha" maskUnits="userSpaceOnUse" x="0" y="0" width="118" height="118">
<rect width="117.162" height="117.162" fill="#D9D9D9"/>
</mask>
<g mask="url(#mask0_54741_30825)">
<path d="M51.9831 81.0371L86.3995 46.6208L79.565 39.7863L51.9831 67.3682L38.0701 53.4552L31.2356 60.2897L51.9831 81.0371ZM58.8176 107.399C52.0645 107.399 45.7182 106.117 39.7787 103.554C33.8392 100.991 28.6727 97.5131 24.2791 93.1195C19.8856 88.7259 16.4073 83.5594 13.8444 77.6199C11.2815 71.6804 10 65.3342 10 58.5811C10 51.828 11.2815 45.4817 13.8444 39.5422C16.4073 33.6027 19.8856 28.4362 24.2791 24.0426C28.6727 19.6491 33.8392 16.1708 39.7787 13.6079C45.7182 11.045 52.0645 9.76351 58.8176 9.76351C65.5706 9.76351 71.9169 11.045 77.8564 13.6079C83.7959 16.1708 88.9624 19.6491 93.356 24.0426C97.7495 28.4362 101.228 33.6027 103.791 39.5422C106.354 45.4817 107.635 51.828 107.635 58.5811C107.635 65.3342 106.354 71.6804 103.791 77.6199C101.228 83.5594 97.7495 88.7259 93.356 93.1195C88.9624 97.5131 83.7959 100.991 77.8564 103.554C71.9169 106.117 65.5706 107.399 58.8176 107.399Z" fill="#9160E8"/>
</g>
</svg>
