<svg width="23" height="23" viewBox="0 0 23 23" fill="none" xmlns="http://www.w3.org/2000/svg">
<mask id="mask0_54832_32152" style="mask-type:alpha" maskUnits="userSpaceOnUse" x="0" y="0" width="23" height="23">
<rect x="0.961914" y="0.765717" width="22" height="22" fill="#D9D9D9"/>
</mask>
<g mask="url(#mask0_54832_32152)">
<path d="M11.9619 15.2384L8.04848 11.325L9.01449 10.3308L11.2744 12.5907V4.89072H12.6494V12.5907L14.9093 10.3308L15.8753 11.325L11.9619 15.2384ZM6.74397 18.6407C6.28093 18.6407 5.889 18.4803 5.56816 18.1594C5.24733 17.8386 5.08691 17.4467 5.08691 16.9836V14.4981H6.46189V16.9836C6.46189 17.0541 6.49127 17.1188 6.55003 17.1776C6.6088 17.2363 6.67345 17.2657 6.74397 17.2657H17.1798C17.2503 17.2657 17.315 17.2363 17.3738 17.1776C17.4325 17.1188 17.4619 17.0541 17.4619 16.9836V14.4981H18.8369V16.9836C18.8369 17.4467 18.6765 17.8386 18.3556 18.1594C18.0348 18.4803 17.6428 18.6407 17.1798 18.6407H6.74397Z" fill="#964CCC"/>
</g>
</svg>
