<svg width="24" height="24" viewBox="0 0 24 24" fill="none" xmlns="http://www.w3.org/2000/svg">
<g opacity="0.8">
<path d="M10.9695 1.89299C11.248 1.62968 11.6167 1.48297 12 1.48297C12.3833 1.48297 12.752 1.62968 13.0305 1.89299L20.2965 8.76149C20.7465 9.18599 21 9.77849 21 10.3965V18.7515C21 19.3482 20.7629 19.9205 20.341 20.3425C19.919 20.7644 19.3467 21.0015 18.75 21.0015H15.75C15.4544 21.0015 15.1617 20.9432 14.8886 20.8301C14.6155 20.7169 14.3674 20.551 14.1585 20.3419C13.9495 20.1329 13.7838 19.8846 13.6708 19.6115C13.5579 19.3383 13.4998 19.0456 13.5 18.75V15C13.5 14.8011 13.421 14.6103 13.2803 14.4697C13.1397 14.329 12.9489 14.25 12.75 14.25H11.25C11.0511 14.25 10.8603 14.329 10.7197 14.4697C10.579 14.6103 10.5 14.8011 10.5 15V18.75C10.5 19.3467 10.2629 19.919 9.84099 20.341C9.41903 20.7629 8.84674 21 8.25 21H5.25C4.65326 21 4.08097 20.7629 3.65901 20.341C3.23705 19.919 3 19.3467 3 18.75V10.395C3 9.77698 3.255 9.18449 3.705 8.75999L10.9695 1.88999V1.89299ZM12 2.98199L4.734 9.85198C4.66024 9.92191 4.60146 10.0061 4.56123 10.0995C4.52101 10.1928 4.50017 10.2933 4.5 10.395V18.75C4.5 18.9489 4.57902 19.1397 4.71967 19.2803C4.86032 19.421 5.05109 19.5 5.25 19.5H8.25C8.44891 19.5 8.63968 19.421 8.78033 19.2803C8.92098 19.1397 9 18.9489 9 18.75V15C9 14.4032 9.23705 13.831 9.65901 13.409C10.081 12.987 10.6533 12.75 11.25 12.75H12.75C13.3467 12.75 13.919 12.987 14.341 13.409C14.7629 13.831 15 14.4032 15 15V18.75C15 18.9489 15.079 19.1397 15.2197 19.2803C15.3603 19.421 15.5511 19.5 15.75 19.5H18.75C18.9489 19.5 19.1397 19.421 19.2803 19.2803C19.421 19.1397 19.5 18.9489 19.5 18.75V10.395C19.5 10.2931 19.4793 10.1923 19.4391 10.0986C19.3988 10.005 19.3399 9.92059 19.266 9.85048L12 2.98199Z" fill="#3A3A3A"/>
</g>
</svg>
