<svg width="16" height="16" viewBox="0 0 16 16" fill="none" xmlns="http://www.w3.org/2000/svg">
<mask id="mask0_54732_45502" style="mask-type:alpha" maskUnits="userSpaceOnUse" x="0" y="0" width="16" height="16">
<rect width="16" height="16" fill="#D9D9D9"/>
</mask>
<g mask="url(#mask0_54732_45502)">
<path d="M8.00001 7.99998C8.36667 7.99998 8.68056 7.86942 8.94167 7.60831C9.20278 7.3472 9.33334 7.03331 9.33334 6.66665C9.33334 6.29998 9.20278 5.98609 8.94167 5.72498C8.68056 5.46387 8.36667 5.33331 8.00001 5.33331C7.63334 5.33331 7.31945 5.46387 7.05834 5.72498C6.79723 5.98609 6.66667 6.29998 6.66667 6.66665C6.66667 7.03331 6.79723 7.3472 7.05834 7.60831C7.31945 7.86942 7.63334 7.99998 8.00001 7.99998ZM8.00001 12.9C9.35556 11.6555 10.3611 10.525 11.0167 9.50831C11.6722 8.49165 12 7.58887 12 6.79998C12 5.58887 11.6139 4.5972 10.8417 3.82498C10.0694 3.05276 9.12223 2.66665 8.00001 2.66665C6.87778 2.66665 5.93056 3.05276 5.15834 3.82498C4.38612 4.5972 4.00001 5.58887 4.00001 6.79998C4.00001 7.58887 4.32778 8.49165 4.98334 9.50831C5.63889 10.525 6.64445 11.6555 8.00001 12.9ZM8.00001 14.6666C6.21112 13.1444 4.87501 11.7305 3.99167 10.425C3.10834 9.11942 2.66667 7.91109 2.66667 6.79998C2.66667 5.13331 3.20278 3.80554 4.27501 2.81665C5.34723 1.82776 6.58889 1.33331 8.00001 1.33331C9.41112 1.33331 10.6528 1.82776 11.725 2.81665C12.7972 3.80554 13.3333 5.13331 13.3333 6.79998C13.3333 7.91109 12.8917 9.11942 12.0083 10.425C11.125 11.7305 9.78889 13.1444 8.00001 14.6666Z" fill="#51B948"/>
</g>
</svg>
