<svg width="11" height="11" viewBox="0 0 11 11" fill="none" xmlns="http://www.w3.org/2000/svg">
<g clip-path="url(#clip0_54832_32136)">
<path d="M7.98503 5.54285C7.98503 6.69343 7.05228 7.62618 5.90169 7.62618C4.7511 7.62618 3.81836 6.69343 3.81836 5.54285C3.81836 4.39226 4.7511 3.45952 5.90169 3.45952C7.05228 3.45952 7.98503 4.39226 7.98503 5.54285Z" fill="#9160E8"/>
<path fill-rule="evenodd" clip-rule="evenodd" d="M5.90153 1.06369C6.07411 1.06369 6.21403 1.2036 6.21403 1.37619V2.20952C6.21403 2.38211 6.07411 2.52202 5.90153 2.52202C5.72895 2.52202 5.58903 2.38211 5.58903 2.20952V1.37619C5.58903 1.2036 5.72895 1.06369 5.90153 1.06369ZM1.42236 5.54286C1.42236 5.37027 1.56228 5.23036 1.73486 5.23036H2.5682C2.74078 5.23036 2.8807 5.37027 2.8807 5.54286C2.8807 5.71544 2.74078 5.85536 2.5682 5.85536H1.73486C1.56228 5.85536 1.42236 5.71544 1.42236 5.54286ZM8.92236 5.54286C8.92236 5.37027 9.06228 5.23036 9.23486 5.23036H10.0682C10.2408 5.23036 10.3807 5.37027 10.3807 5.54286C10.3807 5.71544 10.2408 5.85536 10.0682 5.85536H9.23486C9.06228 5.85536 8.92236 5.71544 8.92236 5.54286ZM5.90153 8.56369C6.07411 8.56369 6.21403 8.70361 6.21403 8.87619V9.70952C6.21403 9.88211 6.07411 10.022 5.90153 10.022C5.72895 10.022 5.58903 9.88211 5.58903 9.70952V8.87619C5.58903 8.70361 5.72895 8.56369 5.90153 8.56369Z" fill="#9160E8"/>
<g opacity="0.5">
<path d="M2.4305 2.09103C2.54696 1.96365 2.74463 1.95481 2.872 2.07127L3.79784 2.91776C3.92522 3.03422 3.93406 3.23188 3.81761 3.35926C3.70115 3.48663 3.50348 3.49548 3.37611 3.37902L2.45027 2.53253C2.32289 2.41607 2.31404 2.2184 2.4305 2.09103Z" fill="#9160E8"/>
<path d="M9.37328 2.09103C9.48974 2.2184 9.4809 2.41607 9.35353 2.53253L8.42765 3.37902C8.30028 3.49548 8.10261 3.48663 7.98615 3.35926C7.8697 3.23188 7.87857 3.03422 8.00595 2.91776L8.93178 2.07127C9.05915 1.95481 9.25682 1.96365 9.37328 2.09103Z" fill="#9160E8"/>
<path d="M7.99585 7.63649C8.11789 7.51445 8.31572 7.51449 8.43777 7.63653L9.3636 8.56249C9.48564 8.68454 9.48564 8.88237 9.3636 9.00441C9.24156 9.12645 9.04368 9.12645 8.92164 9.00437L7.99581 8.07845C7.87377 7.95637 7.87381 7.75854 7.99585 7.63649Z" fill="#9160E8"/>
<path d="M3.80803 7.63657C3.93007 7.75857 3.93007 7.95644 3.80803 8.07848L2.88211 9.0044C2.76006 9.12644 2.5622 9.12644 2.44016 9.0044C2.31812 8.88236 2.31812 8.68452 2.44016 8.56248L3.36609 7.63652C3.48813 7.51452 3.68599 7.51452 3.80803 7.63657Z" fill="#9160E8"/>
</g>
</g>
<defs>
<clipPath id="clip0_54832_32136">
<rect width="10" height="10" fill="white" transform="translate(0.901367 0.542862)"/>
</clipPath>
</defs>
</svg>
