<svg width="19" height="19" viewBox="0 0 19 19" fill="none" xmlns="http://www.w3.org/2000/svg">
<mask id="mask0_55634_7974" style="mask-type:alpha" maskUnits="userSpaceOnUse" x="0" y="0" width="19" height="19">
<rect width="19" height="19" fill="#D9D9D9"/>
</mask>
<g mask="url(#mask0_55634_7974)">
<path d="M3.95833 15.8334C2.83681 15.8334 1.8967 15.4541 1.13802 14.6954C0.37934 13.9367 0 12.9966 0 11.8751C0 10.7536 0.385937 9.81345 1.15781 9.05477C1.92969 8.29609 2.86319 7.91675 3.95833 7.91675C4.97431 7.91675 5.82865 8.22022 6.52135 8.82717C7.21406 9.43411 7.65278 10.1862 7.8375 11.0834H8.35208L6.92708 7.12508H5.54167V5.54175H9.5V7.12508H8.62917L8.90625 7.91675H12.7063L11.5583 4.75008H9.5V3.16675H11.5583C11.9014 3.16675 12.2082 3.25911 12.4786 3.44383C12.7491 3.62855 12.9438 3.87925 13.0625 4.19591L14.4083 7.87716H15.0417C16.1368 7.87716 17.0703 8.2631 17.8422 9.03498C18.6141 9.80685 19 10.7404 19 11.8355C19 12.9438 18.6174 13.8872 17.8521 14.6657C17.0868 15.4442 16.15 15.8334 15.0417 15.8334C14.0917 15.8334 13.2571 15.5365 12.538 14.9428C11.8189 14.349 11.3604 13.5904 11.1625 12.6667H7.8375C7.65278 13.5772 7.20417 14.3325 6.49167 14.9329C5.77917 15.5332 4.93472 15.8334 3.95833 15.8334ZM3.95833 14.2501C4.49931 14.2501 4.96441 14.1016 5.35365 13.8048C5.74288 13.5079 6.01667 13.1286 6.175 12.6667H3.95833V11.0834H6.175C6.01667 10.6084 5.74288 10.2258 5.35365 9.9355C4.96441 9.64522 4.49931 9.50008 3.95833 9.50008C3.28542 9.50008 2.72135 9.72769 2.26615 10.1829C1.81094 10.6381 1.58333 11.2022 1.58333 11.8751C1.58333 12.5348 1.81094 13.0956 2.26615 13.5574C2.72135 14.0192 3.28542 14.2501 3.95833 14.2501ZM10.0542 11.0834H11.1625C11.2285 10.7799 11.3175 10.4963 11.4297 10.2324C11.5418 9.96848 11.6903 9.72439 11.875 9.50008H9.46042L10.0542 11.0834ZM15.0417 14.2501C15.7146 14.2501 16.2786 14.0192 16.7339 13.5574C17.1891 13.0956 17.4167 12.5348 17.4167 11.8751C17.4167 11.2022 17.1891 10.6381 16.7339 10.1829C16.2786 9.72769 15.7146 9.50008 15.0417 9.50008H14.9625L15.7542 11.598L14.25 12.1522L13.4979 10.0542C13.234 10.2786 13.0295 10.5424 12.8844 10.8459C12.7392 11.1494 12.6667 11.4924 12.6667 11.8751C12.6667 12.5348 12.8943 13.0956 13.3495 13.5574C13.8047 14.0192 14.3688 14.2501 15.0417 14.2501Z" fill="white"/>
</g>
</svg>
