<svg width="39" height="39" viewBox="0 0 39 39" fill="none" xmlns="http://www.w3.org/2000/svg">
<path d="M19.5736 17.4971C19.4127 17.481 19.2195 17.481 19.0425 17.4971C15.2115 17.3683 12.1692 14.2294 12.1692 10.3662C12.1692 6.42256 15.3563 3.21933 19.3161 3.21933C23.2598 3.21933 26.463 6.42256 26.463 10.3662C26.4469 14.2294 23.4047 17.3683 19.5736 17.4971Z" stroke="#948F94" stroke-width="3.21933" stroke-linecap="round" stroke-linejoin="round"/>
<path d="M11.5252 23.4367C7.62979 26.0444 7.62979 30.2939 11.5252 32.8855C15.9518 35.8472 23.2113 35.8472 27.6379 32.8855C31.5333 30.2778 31.5333 26.0283 27.6379 23.4367C23.2274 20.491 15.9679 20.491 11.5252 23.4367Z" stroke="#948F94" stroke-width="3.21933" stroke-linecap="round" stroke-linejoin="round"/>
</svg>
