<svg width="26" height="25" viewBox="0 0 26 25" fill="none" xmlns="http://www.w3.org/2000/svg">
<path d="M13 13.2315V5.99341C18.4861 7.39379 19.8085 9.53089 20.2381 13.2315H13Z" fill="#51B948"/>
<mask id="mask0_54744_48759" style="mask-type:alpha" maskUnits="userSpaceOnUse" x="0" y="0" width="26" height="25">
<rect x="0.80957" y="0.279175" width="24.381" height="24.381" fill="#D9D9D9"/>
</mask>
<g mask="url(#mask0_54744_48759)">
<path fill-rule="evenodd" clip-rule="evenodd" d="M13 22.6284C11.7471 22.6284 10.5662 22.3871 9.45718 21.9046C8.34818 21.422 7.37887 20.7659 6.54924 19.9363C5.71961 19.1067 5.06353 18.1374 4.58099 17.0284C4.09845 15.9194 3.85718 14.7384 3.85718 13.4855C3.85718 12.2326 4.09845 11.0517 4.58099 9.94266C5.06353 8.83367 5.71961 7.86436 6.54924 7.03473C7.37887 6.2051 8.34818 5.54901 9.45718 5.06647C10.5662 4.58393 11.7471 4.34266 13 4.34266C14.0498 4.34266 15.0572 4.51198 16.0223 4.8506C16.9873 5.18922 17.8932 5.68023 18.7397 6.32362L20.1619 7.74584C20.8053 8.5924 21.2963 9.49822 21.635 10.4633C21.9736 11.4284 22.1429 12.4358 22.1429 13.4855C22.1429 14.7384 21.9016 15.9194 21.4191 17.0284C20.9365 18.1374 20.2805 19.1067 19.4508 19.9363C18.6212 20.7659 17.6519 21.422 16.5429 21.9046C15.4339 22.3871 14.2529 22.6284 13 22.6284ZM18.0286 18.5141C16.6402 19.9025 14.9641 20.5966 13 20.5966C11.036 20.5966 9.35982 19.9025 7.97146 18.5141C6.5831 17.1257 5.88892 15.4495 5.88892 13.4855C5.88892 11.5215 6.5831 9.84531 7.97146 8.45695C9.35982 7.06859 11.036 6.37441 13 6.37441C14.9641 6.37441 16.6402 7.06859 18.0286 8.45695C19.417 9.84531 20.1111 11.5215 20.1111 13.4855C20.1111 15.4495 19.417 17.1257 18.0286 18.5141Z" fill="#3C4B37"/>
<path fill-rule="evenodd" clip-rule="evenodd" d="M9.95242 3.32679V1.29504H16.0477V3.32679H9.95242Z" fill="#3C4B37"/>
</g>
</svg>
