<svg width="375" height="812" viewBox="0 0 375 812" fill="none" xmlns="http://www.w3.org/2000/svg">
<g clip-path="url(#clip0)">
<g opacity="0.47">
<path opacity="0.11" fill-rule="evenodd" clip-rule="evenodd" d="M541.746 374.318C534.904 392.219 525.206 409.019 505.462 420.467C484.652 432.533 459.168 443.799 428.004 440.27C397.533 436.819 374.557 415.708 347.161 402.541C318.806 388.913 304.537 383.732 292.785 362.584C280.888 341.175 281.072 325.04 294.691 308.12C304.515 295.916 319.586 287.773 332.84 277.415C350.178 263.866 357.055 242.578 384.217 238.158C414.545 233.224 452.409 238.73 482.868 253.004C513.805 267.503 534.953 290.998 546.138 314.044C556.491 335.375 549.063 355.174 541.746 374.318Z" fill="#53B175"/>
<path opacity="0.11" fill-rule="evenodd" clip-rule="evenodd" d="M56.4594 -39.5295C87.1838 -37.5198 117.386 -32.4136 143.446 -16.0282C170.914 1.24218 199.084 23.3152 206.591 54.8646C213.931 85.7129 190.648 113.846 181.577 144.231C172.188 175.68 180.597 218.685 152.574 235.8C124.205 253.126 88.4849 229.572 56.4594 220.645C33.3599 214.206 14.3951 201.541 -7.26011 191.245C-35.588 177.777 -71.6011 176.624 -89.8129 151.1C-110.148 122.599 -117.372 83.946 -107.854 50.2601C-98.187 16.0461 -70.4301 -10.9188 -39.2146 -27.9765C-10.3233 -43.7643 23.6006 -41.6789 56.4594 -39.5295Z" fill="#53B175"/>
<path opacity="0.11" fill-rule="evenodd" clip-rule="evenodd" d="M442.494 763.546C433.189 790.972 421.201 817.171 399.98 836.863C377.613 857.618 350.715 877.843 320.244 876.988C290.45 876.152 270.575 848.154 245.197 832.52C218.931 816.339 177.839 813.518 169.123 783.893C160.299 753.903 190.38 727.179 206.281 700.253C217.751 680.832 233.866 666.682 248.486 649.511C267.61 627.05 277.424 594.609 305.031 584.272C335.858 572.729 372.71 575.569 400.976 592.412C429.686 609.518 447.41 641.297 455.297 673.809C462.597 703.899 452.445 734.214 442.494 763.546Z" fill="#53B175"/>
<path opacity="0.11" fill-rule="evenodd" clip-rule="evenodd" d="M231.802 724.465C223.74 746.129 212.535 766.546 190.314 780.8C166.893 795.823 138.303 810.007 103.79 806.58C70.0435 803.229 45.078 778.485 14.9986 763.391C-16.1339 747.769 -31.8441 741.92 -44.3448 716.841C-56.9997 691.452 -56.3767 672.081 -40.8142 651.417C-29.5892 636.513 -12.6429 626.348 2.34339 613.572C21.9474 596.858 30.1368 571.127 60.4122 565.117C94.218 558.407 136.12 564.033 169.572 580.377C203.548 596.977 226.422 624.629 238.244 652.002C249.186 677.337 240.424 701.295 231.802 724.465Z" fill="#53B175"/>
<path opacity="0.11" d="M121.75 582.502C121.201 588.656 118.612 597.894 117.386 601.744C122.954 599.774 136.397 595.026 145.627 591.796C154.857 588.566 179.503 576.934 190.673 571.522C183.793 576.108 167.679 586.602 158.267 591.883C148.854 597.165 127.759 606.351 118.388 610.284C129.381 610.141 156.326 609.663 176.16 608.893C200.952 607.931 205.146 603.783 211.874 600.906C218.601 598.029 222.379 582.064 223.682 577.359C224.724 573.595 224.84 558.889 224.768 552.007L225.942 545.452C225.379 545.169 223.05 544.895 218.241 546.055C212.229 547.505 187.308 546.617 181.654 547.353C176 548.09 161.313 547.869 153.97 547.759C146.627 547.648 137.981 552.243 132.585 556.68C127.189 561.118 122.437 574.809 121.75 582.502Z" fill="#53B175"/>
<path opacity="0.11" d="M241.907 164.053C237.067 167.181 228.76 170.807 225.211 172.229C229.946 174.496 241.371 179.974 249.193 183.752C257.015 187.53 280.109 195.926 290.678 199.653C283.249 198.062 266.031 194.197 256.596 191.462C247.161 188.727 227.959 181.107 219.538 177.639C226.137 184.222 242.405 200.285 254.687 211.873C270.039 226.358 275.56 226.567 281.645 229.027C287.73 231.486 301.675 224.798 305.896 222.942C309.273 221.457 320.131 213.257 325.138 209.343L330.64 206.368C330.515 205.868 329.341 204.302 325.648 202.04C321.033 199.211 306.962 183.607 303.082 180.595C299.201 177.582 290.687 168.556 286.43 164.043C282.173 159.531 273.695 156.874 267.251 156.099C260.808 155.324 247.956 160.144 241.907 164.053Z" fill="#53B175"/>
</g>
</g>
<defs>
<clipPath id="clip0">
<rect width="375" height="812" fill="white"/>
</clipPath>
</defs>
</svg>
