<svg width="25" height="25" viewBox="0 0 25 25" fill="none" xmlns="http://www.w3.org/2000/svg">
<path d="M21.4136 5.82764L18.8135 3.22998C18.4961 2.9126 18.0713 2.73438 17.6221 2.73438C17.1729 2.73438 16.748 2.91016 16.4307 3.22998L13.6304 6.02539C13.313 6.34277 13.1348 6.77002 13.1348 7.21924C13.1348 7.6709 13.3105 8.09326 13.6304 8.41309L15.8179 10.603C15.3195 11.7641 14.6035 12.8191 13.7085 13.7109C12.8125 14.6118 11.7651 15.3223 10.603 15.8252L8.41553 13.6353C8.09815 13.3179 7.67334 13.1396 7.22412 13.1396C7.00255 13.1388 6.78304 13.1822 6.57846 13.2673C6.37387 13.3524 6.18834 13.4775 6.03272 13.6353L3.22998 16.4307C2.9126 16.748 2.73438 17.1753 2.73438 17.6245C2.73438 18.0762 2.91016 18.4985 3.22998 18.8184L5.82764 21.416C6.36963 21.958 7.1167 22.2681 7.8833 22.2681C8.04199 22.2681 8.1958 22.2559 8.35205 22.229C11.5845 21.6968 14.7925 19.9756 17.3828 17.3877C19.9707 14.7949 21.6895 11.5869 22.2266 8.35205C22.3804 7.43408 22.0728 6.48926 21.4136 5.82764ZM20.4956 8.06152C20.0195 10.9399 18.4717 13.811 16.1401 16.1426C13.8086 18.4741 10.9399 20.022 8.06152 20.498C7.7002 20.5591 7.3291 20.437 7.06543 20.1758L4.51416 17.6245L7.21924 14.917L10.144 17.8467L10.166 17.8687L10.6934 17.6733C12.2923 17.0855 13.7443 16.1569 14.9487 14.9521C16.1531 13.7473 17.0811 12.295 17.6685 10.6958L17.8638 10.1685L14.9146 7.22168L17.6196 4.51416L20.1709 7.06543C20.4346 7.3291 20.5566 7.7002 20.4956 8.06152Z" fill="#4086D2"/>
</svg>
